<svg width="121" height="70" viewBox="0 0 121 70" fill="none" xmlns="http://www.w3.org/2000/svg">
<path d="M120.833 17.8909L103.17 68.6462C103.033 69.0407 102.777 69.3829 102.437 69.6253C102.098 69.8678 101.692 69.9987 101.276 70H19.6142C19.1976 69.9987 18.7917 69.8678 18.4524 69.6253C18.1132 69.3829 17.8573 69.0407 17.72 68.6462L0.0571042 17.7959C0.00500087 17.6484 -0.0117651 17.4907 0.00811469 17.3355C0.0279945 17.1804 0.0839771 17.032 0.171558 16.9025C0.259138 16.7731 0.375865 16.6661 0.512281 16.5902C0.648696 16.5144 0.800971 16.4717 0.956836 16.4658C4.21109 16.3203 7.3998 17.4148 9.88301 19.5297C11.3348 20.7817 12.493 22.34 13.2748 24.0931C14.0565 25.8463 14.4426 27.751 14.4053 29.6712C15.2271 28.6109 16.3265 27.8006 17.5808 27.3309C18.8351 26.8611 20.1949 26.7505 21.5083 27.0112C22.826 27.2562 24.0477 27.8702 25.0322 28.7822C26.0168 29.6942 26.7241 30.867 27.0724 32.1651C27.4252 33.4572 27.4152 34.822 27.0433 36.1087C26.6714 37.3955 25.9522 38.5541 24.9651 39.4565C24.8749 38.5138 24.426 37.6422 23.7117 37.0229C22.9973 36.4036 22.0725 36.0843 21.1295 36.1314C20.1852 36.1743 19.2938 36.5809 18.641 37.2667C17.9882 37.9525 17.6243 38.8645 17.6253 39.8128C17.6799 40.9454 17.9568 42.0562 18.4399 43.0814C18.9231 44.1066 19.6031 45.0261 20.4411 45.7872C21.279 46.5483 22.2584 47.1362 23.3232 47.517C24.388 47.8979 25.5172 48.0644 26.6462 48.0068C28.8779 47.8962 30.9795 46.9205 32.5079 45.2855C34.0362 43.6505 34.8718 41.4839 34.8384 39.2428C33.6548 38.8981 32.6421 38.1227 31.9983 37.0685C31.3546 36.0142 31.1262 34.7569 31.3579 33.5426C31.5437 32.5982 31.9981 31.7279 32.6661 31.0367C33.3341 30.3456 34.1872 29.863 35.1225 29.6475C35.8376 29.4892 36.5787 29.4921 37.2925 29.6559C38.0063 29.8197 38.6749 30.1403 39.2502 30.5947C39.8255 31.0491 40.2931 31.626 40.6193 32.2836C40.9455 32.9412 41.1221 33.6632 41.1364 34.3976C41.136 35.0575 41.0038 35.7107 40.7476 36.3185C40.4914 36.9263 40.1164 37.4765 39.6448 37.9365C40.7354 39.4099 42.228 40.5348 43.9423 41.1755C45.6566 41.8161 47.5192 41.945 49.3049 41.5466C54.2534 40.4066 59.4149 32.9251 55.1531 29.6712C54.5256 29.169 53.7584 28.8743 52.957 28.8275C52.1557 28.7807 51.3595 28.9842 50.6782 29.41C49.9949 29.8276 49.4559 30.4456 49.1341 31.1804C48.8123 31.9153 48.7231 32.7315 48.8788 33.5188C47.4216 33.1825 46.0932 32.4288 45.0551 31.3495C44.0169 30.2701 43.3136 28.9114 43.0306 27.4387C42.7384 25.9642 42.8832 24.4361 43.447 23.0432C44.0108 21.6504 44.969 20.4537 46.2033 19.6009C47.428 18.744 48.8747 18.2631 50.3672 18.2167C51.8597 18.1703 53.3333 18.5605 54.6086 19.3397C51.3885 14.3757 53.0932 8.05806 59.7228 0.339068C59.8182 0.23236 59.935 0.147069 60.0656 0.0886448C60.1961 0.0302211 60.3375 0 60.4804 0C60.6233 0 60.7647 0.0302211 60.8952 0.0886448C61.0258 0.147069 61.1426 0.23236 61.2381 0.339068C67.8439 8.08181 69.5486 14.3995 66.3522 19.3397C67.6275 18.5605 69.1012 18.1703 70.5936 18.2167C72.0861 18.2631 73.5328 18.744 74.7575 19.6009C75.9872 20.4579 76.9419 21.6552 77.5052 23.0468C78.0686 24.4384 78.2162 25.9643 77.9302 27.4387C77.6472 28.9114 76.9439 30.2701 75.9057 31.3495C74.8676 32.4288 73.5392 33.1825 72.082 33.5188C72.232 32.7292 72.1377 31.9124 71.8118 31.1781C71.486 30.4437 70.9442 29.8268 70.2589 29.41C69.5812 28.9862 68.7891 28.7837 67.9919 28.8305C67.1946 28.8773 66.4315 29.1711 65.8077 29.6712C61.5459 33.0201 66.7074 40.5016 71.6559 41.5466C73.4381 41.9401 75.2957 41.8088 77.0053 41.1683C78.7149 40.5279 80.2036 39.4056 81.2924 37.9365C80.4438 37.0924 79.9232 35.9723 79.8244 34.7776C79.7501 33.7763 79.9818 32.7761 80.4885 31.9103C80.9952 31.0444 81.7529 30.3539 82.6606 29.9309C83.5683 29.5078 84.583 29.3723 85.5695 29.5423C86.5559 29.7123 87.4674 30.1798 88.1823 30.8825C88.7331 31.3698 89.1491 31.9915 89.3898 32.6875C89.6169 33.3275 89.7112 34.0074 89.6671 34.6852C89.6229 35.3631 89.4412 36.0247 89.133 36.6296C88.8249 37.2345 88.3968 37.7699 87.875 38.2029C87.3533 38.6359 86.7488 38.9574 86.0988 39.1478C86.0715 41.3911 86.9124 43.5577 88.4445 45.1921C89.9767 46.8264 92.0808 47.8013 94.3146 47.9118C96.5916 48.0153 98.8171 47.2124 100.507 45.6777C102.196 44.143 103.213 42.0009 103.335 39.7178C103.336 38.7696 102.973 37.8576 102.32 37.1718C101.667 36.486 100.776 36.0792 99.8313 36.0364C98.8858 35.9889 97.9582 36.3074 97.24 36.9262C96.5218 37.545 96.0679 38.4168 95.972 39.3616C94.9891 38.4565 94.2744 37.2967 93.9067 36.0101C93.5391 34.7235 93.5327 33.3601 93.8884 32.0701C94.2367 30.772 94.944 29.5992 95.9286 28.6872C96.9131 27.7752 98.1348 27.1612 99.4525 26.9161C100.766 26.6413 102.13 26.7452 103.387 27.216C104.644 27.6868 105.743 28.5051 106.556 29.5762C106.523 27.6544 106.913 25.749 107.699 23.996C108.485 22.243 109.647 20.6855 111.101 19.4347C113.574 17.3171 116.756 16.2218 120.004 16.3708C120.182 16.3661 120.359 16.411 120.513 16.5003C120.668 16.5896 120.795 16.7199 120.881 16.877C120.967 17.0341 121.007 17.2119 120.999 17.3908C120.99 17.5696 120.933 17.7427 120.833 17.8909Z" fill="#FCBD78"/>
</svg>
