<svg width="287" height="225" viewBox="0 0 287 225" fill="none" xmlns="http://www.w3.org/2000/svg">
<g clip-path="url(#clip0_796_2000)">
<path d="M0.0942865 71.4977C0.155443 71.9788 0.290524 72.4477 0.494764 72.8876C0.575594 73.1929 0.677945 73.492 0.801026 73.7828C1.18083 74.4828 1.64785 75.1319 2.19092 75.7145L137.483 222.526L138.331 223.257C138.388 223.304 138.452 223.344 138.52 223.374C138.664 223.529 138.822 223.671 138.991 223.799L139.485 223.987C139.756 224.181 140.059 224.324 140.381 224.411L141.347 224.764C142.04 224.936 142.753 225.015 143.467 225C144.052 225.01 144.637 224.955 145.21 224.835L146.129 224.576C146.486 224.466 146.827 224.308 147.142 224.105L147.99 223.681C148.159 223.525 148.34 223.383 148.532 223.257C148.767 223.021 149.026 222.903 149.026 222.833C149.195 222.688 149.352 222.53 149.497 222.361L284.742 75.7145C285.359 75.0086 285.868 74.2146 286.25 73.3588C286.51 72.8054 286.692 72.2187 286.792 71.6155C286.792 71.3092 286.792 71.1914 286.792 70.9559C286.828 70.4146 286.828 69.8716 286.792 69.3304C286.792 69.1419 286.627 68.553 286.627 68.4116C286.627 68.2703 286.439 67.6342 286.321 67.2102C286.269 67.1019 286.206 66.9992 286.132 66.9039C286.057 66.6137 285.912 66.3466 285.708 66.1265C285.487 65.6391 285.184 65.193 284.813 64.8073L224.977 3.27447C224.197 2.27494 223.2 1.46667 222.061 0.9114C220.922 0.35613 219.671 0.0685514 218.404 0.0706174H68.4353C67.2414 0.0514859 66.0581 0.297204 64.9705 0.790082C63.8829 1.28296 62.918 2.01073 62.1453 2.92108L1.71978 65.1135C1.50941 65.3761 1.32774 65.6604 1.17792 65.9616C0.985571 66.2605 0.820042 66.5759 0.68323 66.9039L0.494764 67.2809C0.367638 67.6327 0.273023 67.9954 0.212082 68.3645C0.212082 68.6001 0.212078 69.0241 0.0236161 69.2597C-0.0118597 69.7459 -0.0118597 70.2341 0.0236161 70.7203C0.0236161 70.8145 0.0942865 71.2385 0.0942865 71.4977ZM27.1621 78.4237H76.6334L117.671 176.636L27.1621 78.4237ZM143.396 195.27L116.752 131.287L94.608 78.3294H192.255L143.396 195.27ZM169.168 176.636L210.3 78.4237H259.771L169.168 176.636ZM214.705 16.4432L260.195 61.7448H208.133L163.185 16.5375L214.705 16.4432ZM184.858 61.839H101.934L143.302 20.024L184.858 61.839ZM72.1574 16.5375H123.56L78.8007 61.839H26.691L72.1574 16.5375Z" fill="#FFBD78"/>
</g>
<defs>
<clipPath id="clip0_796_2000">
<rect width="286.886" height="225" fill="white"/>
</clipPath>
</defs>
</svg>
