<svg width="550" height="530" viewBox="0 0 550 530" fill="none" xmlns="http://www.w3.org/2000/svg">
<path d="M0 260.06H10.79V311.65H43.08V321.48H0V260.06Z" fill="#FFBD78"/>
<path d="M47.73 290.94V290.77C47.73 273.57 61.06 259 79.93 259C98.8 259 111.93 273.31 111.93 290.59V290.77C111.93 307.96 98.59 322.53 79.72 322.53C60.85 322.53 47.73 308.19 47.73 290.94ZM100.64 290.94V290.77C100.64 278.83 92.04 269.01 79.75 269.01C67.46 269.01 59.05 278.66 59.05 290.59V290.77C59.05 302.7 67.65 312.53 79.93 312.53C92.21 312.53 100.64 302.87 100.64 290.94Z" fill="#FFBD78"/>
<path d="M121.51 260.06H131.51L164.41 302.52V260.06H175V321.48H166L132.13 277.78V321.48H121.51V260.06Z" fill="#FFBD78"/>
<path d="M184.59 290.94V290.77C184.59 273.57 197.67 259 216.27 259C226.89 259 233.55 262 239.87 267.34L233 275.5C228.26 271.5 223.52 269.01 215.8 269.01C204.57 269.01 195.88 278.83 195.88 290.59V290.77C195.88 303.4 204.22 312.7 216.77 312.7C222.08 312.774 227.274 311.144 231.59 308.05V296.65H215.89V287.19H242.04V312.99C234.912 319.134 225.821 322.525 216.41 322.55C197.23 322.53 184.59 308.84 184.59 290.94Z" fill="#FFBD78"/>
<path d="M254.69 260.06H300.23V269.71H265.49V285.71H296.28V295.45H265.49V311.85H300.67V321.51H254.67L254.69 260.06Z" fill="#FFBD78"/>
<path d="M308.74 260.06H320.67L339.19 307.26L357.61 260.06H369.28L343.84 321.92H334.19L308.74 260.06Z" fill="#FFBD78"/>
<path d="M379 260.06H389.79V321.48H379V260.06Z" fill="#FFBD78"/>
<path d="M420.16 270.06H400.6V260.06H450.52V270.06H431V321.48H420.2L420.16 270.06Z" fill="#FFBD78"/>
<path d="M479.82 297.26L455.43 260.06H468.24L485.35 287.19L502.72 260.08H515.1L490.7 297.02V321.5H479.82V297.26Z" fill="#FFBD78"/>
<path d="M254.21 337.13H262.65V377.46H287.89V385.19H254.21V337.13Z" fill="#FFBD78"/>
<path d="M294.34 361.27V361.19C294.34 347.74 304.77 336.36 319.52 336.36C334.27 336.36 344.52 347.54 344.52 361.05V361.19C344.546 364.487 343.911 367.755 342.651 370.802C341.391 373.849 339.532 376.612 337.185 378.927C334.838 381.242 332.05 383.063 328.987 384.281C325.923 385.5 322.646 386.091 319.35 386.02C304.63 385.97 294.34 374.79 294.34 361.27ZM335.7 361.27V361.19C335.7 351.86 328.98 344.19 319.38 344.19C309.78 344.19 303.19 351.73 303.19 361.06V361.2C303.19 370.53 309.91 378.2 319.52 378.2C329.13 378.2 335.7 370.6 335.7 361.27Z" fill="#FFBD78"/>
<path d="M352.85 364.77V337.13H361.29V364.43C361.29 373.43 365.82 378.08 373.43 378.08C381.04 378.08 385.51 373.62 385.51 364.77V337.13H393.94V364.36C393.94 378.7 385.85 385.9 373.3 385.9C360.75 385.9 352.85 378.7 352.85 364.77Z" fill="#FFBD78"/>
<path d="M404.44 337.13H412.26L437.98 370.33V337.13H446.28V385.13H439.22L412.74 350.97V385.19H404.44V337.13Z" fill="#FFBD78"/>
<path d="M456.5 361.27V361.19C456.5 347.74 466.72 336.36 481.27 336.36C489.57 336.36 494.78 338.69 499.72 342.87L494.37 349.25C490.728 345.857 485.896 344.035 480.92 344.18C472.14 344.18 465.35 351.86 465.35 361.05V361.19C465.35 371.07 471.87 378.34 481.68 378.34C485.833 378.397 489.895 377.122 493.27 374.7V365.78H481V358.38H501.44V378.54C495.882 383.344 488.786 385.997 481.44 386.02C466.38 385.97 456.5 375.27 456.5 361.27Z" fill="#FFBD78"/>
<path d="M514.05 337.13H549.66V344.67H522.49V357.19H546.57V364.8H522.49V377.63H550V385.19H514L514.05 337.13Z" fill="#FFBD78"/>
<path d="M494.009 0.00112402H339.652C339.446 -0.000847624 339.243 0.061685 339.074 0.180007C338.905 0.29833 338.777 0.466525 338.708 0.661058L334.199 13.5769C334.152 13.7269 334.14 13.886 334.164 14.0415C334.189 14.197 334.249 14.3446 334.341 14.4727C334.432 14.6008 334.553 14.7058 334.692 14.7794C334.831 14.853 334.986 14.8932 335.144 14.8968H479.137C479.4 14.8968 479.652 15.0011 479.838 15.1867C480.024 15.3724 480.128 15.6242 480.128 15.8867V242.834C480.128 242.966 480.155 243.097 480.206 243.219C480.257 243.34 480.333 243.451 480.427 243.543C480.522 243.635 480.634 243.707 480.757 243.756C480.88 243.804 481.011 243.827 481.144 243.824H494.056C494.319 243.824 494.571 243.72 494.757 243.534C494.943 243.349 495.047 243.097 495.047 242.834V0.990989C495.047 0.856929 495.02 0.724279 494.967 0.600999C494.915 0.477718 494.837 0.366366 494.74 0.273801C494.643 0.181236 494.528 0.109359 494.402 0.0624781C494.277 0.0155969 494.143 -0.00525987 494.009 0.00112402Z" fill="#FCBD78"/>
<path d="M442.431 402.351C442.215 402.348 442.005 402.423 441.84 402.563C440.07 403.93 438.229 405.226 436.34 406.475L276.555 511.971C276.389 512.076 276.196 512.131 276 512.131C275.804 512.131 275.611 512.076 275.445 511.971L115.66 406.381C104.262 398.872 94.5743 389.053 87.2255 377.561C79.8768 366.07 75.0315 353.163 73.0045 339.68C72.9756 339.445 72.861 339.228 72.6825 339.072C72.5041 338.915 72.2742 338.83 72.0367 338.832H58.9593C58.8175 338.834 58.6777 338.866 58.549 338.926C58.4203 338.985 58.3055 339.071 58.2121 339.178C58.1187 339.284 58.0487 339.409 58.0066 339.544C57.9645 339.68 57.9513 339.822 57.9678 339.963C60.0933 355.882 65.6192 371.16 74.1717 384.762C82.7241 398.364 94.1034 409.972 107.539 418.802L275.563 529.836C275.729 529.941 275.922 529.997 276.118 529.997C276.314 529.997 276.507 529.941 276.673 529.836L444.579 418.849C451.106 414.539 457.166 409.563 462.66 404C462.802 403.862 462.899 403.684 462.938 403.49C462.978 403.296 462.958 403.095 462.882 402.912C462.806 402.73 462.676 402.574 462.511 402.466C462.345 402.357 462.15 402.301 461.952 402.303L442.431 402.351Z" fill="#FCBD78"/>
<path d="M217.801 13.577L213.292 0.661139C213.223 0.466606 213.095 0.298411 212.926 0.180088C212.757 0.0617659 212.554 -0.000766743 212.348 0.0012049H57.9915C57.7285 0.0012049 57.4763 0.105501 57.2904 0.291144C57.1045 0.476788 57 0.728531 57 0.99107V242.834C57 243.097 57.1045 243.349 57.2904 243.534C57.4763 243.72 57.7285 243.824 57.9915 243.824H70.9273C71.1902 243.824 71.4424 243.72 71.6283 243.534C71.8142 243.349 71.9187 243.097 71.9187 242.834V15.8161C71.9187 15.5536 72.0231 15.3017 72.2091 15.1161C72.395 14.9305 72.6472 14.8262 72.9102 14.8262H216.904C217.051 14.8174 217.194 14.7759 217.323 14.7048C217.453 14.6336 217.564 14.5346 217.65 14.4149C217.736 14.2952 217.794 14.1579 217.82 14.013C217.846 13.868 217.84 13.719 217.801 13.577Z" fill="#FCBD78"/>
</svg>
