<svg width="606" height="833" viewBox="0 0 606 833" fill="none" xmlns="http://www.w3.org/2000/svg">
<path d="M578.681 767.235L578.481 766.619L367.098 66.3095C353.855 21.7086 367.098 12.5469 448.028 8.00162L446.829 0H153.341L155.839 8.00162C240.343 12.5469 259.657 21.7086 272.975 66.3095L485.458 767.708C495.127 802.011 481.884 814.629 445.604 814.629H324.871C204.088 814.629 135.25 778.006 8.44534 630.402H0L121.883 826.892C123.02 828.715 124.639 830.226 126.58 831.277C128.52 832.327 130.717 832.88 132.952 832.882H563.265C566.657 832.881 569.911 831.604 572.31 829.331L586.177 816.215C588.72 813.791 591.745 811.869 595.078 810.56C598.41 809.252 601.984 808.583 605.591 808.593V786.079C599.542 786.182 593.626 784.391 588.761 780.984C583.895 777.577 580.352 772.744 578.681 767.235Z" fill="#FFBD78"/>
</svg>
