<svg width="606" height="833" viewBox="0 0 606 833" fill="none" xmlns="http://www.w3.org/2000/svg">
<path d="M597.121 630.402C470.316 778.006 401.479 814.629 280.67 814.629H159.962C123.682 814.629 110.439 802.011 119.984 767.708L332.542 66.2385C345.834 21.6376 365.024 12.4759 449.677 7.93062L452.176 -0.0710449H158.738L157.513 7.93062C238.444 12.4759 251.686 21.6376 238.444 66.2385L27.0851 766.619L26.9101 767.211C25.2575 772.738 21.7224 777.592 16.8553 781.018C11.9881 784.443 6.06211 786.248 0 786.15V808.664C7.2817 808.668 14.2641 811.409 19.4143 816.287L33.2567 829.402C35.6554 831.675 38.909 832.952 42.3017 832.953H472.615C474.85 832.951 477.046 832.398 478.987 831.348C480.928 830.298 482.546 828.787 483.683 826.963L605.566 630.473L597.121 630.402Z" fill="#FFBD78"/>
</svg>
